<?xml version="1.0" standalone="no"?>
<!DOCTYPE svg PUBLIC "-//W3C//DTD SVG 20010904//EN"
 "http://www.w3.org/TR/2001/REC-SVG-20010904/DTD/svg10.dtd">
<svg version="1.0" xmlns="http://www.w3.org/2000/svg"
 width="152.000000pt" height="152.000000pt" viewBox="0 0 152.000000 152.000000"
 preserveAspectRatio="xMidYMid meet">
<metadata>
Created by potrace 1.11, written by Peter Selinger 2001-2013
</metadata>
<g transform="translate(0.000000,152.000000) scale(0.100000,-0.100000)"
fill="#000000" stroke="none">
<path d="M180 775 l0 -295 35 0 35 0 2 226 3 226 94 -138 c52 -77 97 -143 101
-147 4 -5 54 60 111 144 l104 152 3 -232 2 -231 35 0 35 0 0 296 0 295 -37 -3
c-35 -3 -41 -9 -135 -148 -55 -80 -103 -149 -107 -153 -4 -4 -54 62 -111 148
-99 149 -104 155 -136 155 l-34 0 0 -295z"/>
<path d="M860 775 l0 -295 35 0 35 0 0 83 0 83 60 59 c33 32 61 57 63 54 2 -2
52 -66 112 -141 l109 -138 43 0 c24 0 42 4 39 9 -3 4 -62 80 -131 167 l-126
158 128 128 128 128 -50 -1 -50 0 -160 -168 -160 -167 -3 168 -2 168 -35 0
-35 0 0 -295z"/>
</g>
</svg>
